<?xml version="1.0" encoding="UTF-8"?>
<svg width="341px" height="69px" viewBox="0 0 341 69" version="1.1" xmlns="http://www.w3.org/2000/svg" xmlns:xlink="http://www.w3.org/1999/xlink">
    <!-- Generator: Sketch 57.1 (83088) - https://sketch.com -->
    <title>dip-dia-blue</title>
    <desc>Created with Sketch.</desc>
    <g id="Page-1" stroke="none" stroke-width="1" fill="none" fill-rule="evenodd">
        <g id="Artboard" transform="translate(-50.000000, -167.000000)">
            <g id="dip-dia-blue" transform="translate(50.000000, 167.000000)">
                <path d="M99.775,33.4139 C99.775,32.5519 99.656,31.7589 99.418,31.0349 C99.178,30.3109 98.829,29.6909 98.367,29.1759 C97.905,28.6599 97.342,28.2559 96.68,27.9629 C96.018,27.6709 95.264,27.5239 94.418,27.5239 L91.184,27.5239 L91.184,39.3499 L94.418,39.3499 C95.279,39.3499 96.046,39.1989 96.715,38.8989 C97.385,38.5989 97.947,38.1829 98.401,37.6509 C98.855,37.1199 99.198,36.4929 99.429,35.7689 C99.66,35.0459 99.775,34.2609 99.775,33.4139 L99.775,33.4139 Z M88.597,41.6359 L88.597,25.2379 L94.418,25.2379 C95.741,25.2379 96.9,25.4539 97.893,25.8849 C98.886,26.3159 99.717,26.9009 100.387,27.6399 C101.057,28.3789 101.561,29.2449 101.9,30.2379 C102.239,31.2309 102.408,32.2899 102.408,33.4139 C102.408,34.6609 102.219,35.7889 101.842,36.7969 C101.465,37.8059 100.93,38.6679 100.237,39.3839 C99.545,40.0999 98.705,40.6539 97.72,41.0469 C96.734,41.4389 95.633,41.6359 94.418,41.6359 L88.597,41.6359 Z" id="Fill-1" fill="#FEFEFE"></path>
                <path d="M104.579,41.6357 L107.119,41.6357 L107.119,29.5567 L104.579,29.5567 L104.579,41.6357 Z M104.579,27.5707 L107.119,27.5707 L107.119,24.7767 L104.579,24.7767 L104.579,27.5707 Z" id="Fill-3" fill="#FEFEFE"></path>
                <path d="M115.5494,39.6952 C115.9344,39.6952 116.3034,39.6312 116.6574,39.4992 C117.0114,39.3692 117.3394,39.1912 117.6394,38.9672 C117.9394,38.7452 118.1964,38.4912 118.4124,38.2062 C118.6284,37.9212 118.7824,37.6172 118.8744,37.2942 L118.8744,34.1302 C118.7204,33.7452 118.5204,33.3942 118.2744,33.0792 C118.0284,32.7632 117.7464,32.4902 117.4314,32.2582 C117.1154,32.0282 116.7804,31.8472 116.4264,31.7162 C116.0724,31.5862 115.7184,31.5192 115.3644,31.5192 C114.8104,31.5192 114.3134,31.6392 113.8744,31.8782 C113.4364,32.1172 113.0624,32.4322 112.7544,32.8252 C112.4464,33.2172 112.2074,33.6602 112.0384,34.1532 C111.8684,34.6452 111.7844,35.1542 111.7844,35.6762 C111.7844,36.2312 111.8804,36.7512 112.0724,37.2362 C112.2654,37.7202 112.5304,38.1442 112.8694,38.5062 C113.2084,38.8682 113.6054,39.1572 114.0594,39.3722 C114.5134,39.5882 115.0104,39.6952 115.5494,39.6952 M114.7174,41.7512 C113.9014,41.7512 113.1544,41.5862 112.4774,41.2552 C111.7994,40.9242 111.2184,40.4732 110.7344,39.9032 C110.2484,39.3342 109.8714,38.6792 109.6024,37.9402 C109.3324,37.2012 109.1974,36.4242 109.1974,35.6072 C109.1974,34.7462 109.3364,33.9332 109.6134,33.1712 C109.8914,32.4092 110.2754,31.7472 110.7684,31.1852 C111.2614,30.6232 111.8504,30.1762 112.5344,29.8452 C113.2204,29.5142 113.9794,29.3482 114.8104,29.3482 C115.7794,29.3482 116.6304,29.5802 117.3614,30.0422 C118.0934,30.5042 118.6974,31.1042 119.1754,31.8432 L119.1754,29.5562 L121.4154,29.5562 L121.4154,41.2892 C121.4154,42.1672 121.2534,42.9442 120.9304,43.6222 C120.6074,44.2992 120.1564,44.8732 119.5794,45.3422 C119.0014,45.8122 118.3204,46.1702 117.5354,46.4162 C116.7504,46.6622 115.9034,46.7862 114.9944,46.7862 C113.6544,46.7862 112.5424,46.5582 111.6574,46.1042 C110.7724,45.6502 110.0284,45.0152 109.4294,44.1992 L110.8614,42.8592 C111.3224,43.5072 111.9194,43.9992 112.6514,44.3382 C113.3814,44.6762 114.1634,44.8452 114.9944,44.8452 C115.5184,44.8452 116.0144,44.7762 116.4854,44.6372 C116.9534,44.5002 117.3654,44.2842 117.7204,43.9912 C118.0734,43.6992 118.3554,43.3292 118.5634,42.8832 C118.7714,42.4362 118.8744,41.9052 118.8744,41.2892 L118.8744,39.4412 C118.4444,40.1802 117.8514,40.7512 117.0964,41.1502 C116.3424,41.5512 115.5494,41.7512 114.7174,41.7512" id="Fill-5" fill="#FEFEFE"></path>
                <path d="M124.233,41.6357 L126.773,41.6357 L126.773,29.5567 L124.233,29.5567 L124.233,41.6357 Z M124.233,27.5707 L126.773,27.5707 L126.773,24.7767 L124.233,24.7767 L124.233,27.5707 Z" id="Fill-6" fill="#FEFEFE"></path>
                <path d="M136.3111,41.0116 C135.9881,41.1656 135.5401,41.3396 134.9711,41.5326 C134.4021,41.7246 133.7931,41.8206 133.1471,41.8206 C132.7471,41.8206 132.3701,41.7666 132.0151,41.6586 C131.6611,41.5516 131.3491,41.3896 131.0801,41.1736 C130.8101,40.9576 130.5981,40.6776 130.4451,40.3306 C130.2901,39.9846 130.2131,39.5656 130.2131,39.0726 L130.2131,31.5196 L128.6211,31.5196 L128.6211,29.5566 L130.2131,29.5566 L130.2131,25.5846 L132.7541,25.5846 L132.7541,29.5566 L135.3871,29.5566 L135.3871,31.5196 L132.7541,31.5196 L132.7541,38.2636 C132.7851,38.6956 132.9191,39.0066 133.1591,39.1996 C133.3971,39.3916 133.6931,39.4886 134.0471,39.4886 C134.4021,39.4886 134.7411,39.4266 135.0641,39.3026 C135.3871,39.1796 135.6251,39.0796 135.7801,39.0026 L136.3111,41.0116 Z" id="Fill-7" fill="#FEFEFE"></path>
                <path d="M141.7388,39.996 C142.3538,39.996 142.9348,39.885 143.4818,39.661 C144.0288,39.438 144.4558,39.126 144.7638,38.725 C145.0878,38.448 145.2488,38.156 145.2488,37.848 L145.2488,36.255 C144.8178,36.085 144.3598,35.954 143.8748,35.862 C143.3898,35.769 142.9168,35.724 142.4548,35.724 C141.5458,35.724 140.8028,35.92 140.2258,36.312 C139.6478,36.705 139.3598,37.225 139.3598,37.871 C139.3598,38.472 139.5828,38.976 140.0298,39.384 C140.4758,39.792 141.0458,39.996 141.7388,39.996 M141.0458,41.866 C140.4608,41.866 139.9178,41.77 139.4178,41.578 C138.9168,41.386 138.4858,41.12 138.1238,40.781 C137.7618,40.442 137.4768,40.042 137.2688,39.58 C137.0618,39.118 136.9578,38.618 136.9578,38.079 C136.9578,37.51 137.0808,36.993 137.3278,36.531 C137.5738,36.069 137.9238,35.67 138.3788,35.331 C138.8328,34.992 139.3718,34.73 139.9948,34.546 C140.6188,34.36 141.3068,34.268 142.0618,34.268 C142.6318,34.268 143.1938,34.318 143.7478,34.418 C144.3018,34.518 144.8018,34.653 145.2488,34.822 L145.2488,33.991 C145.2488,33.099 144.9948,32.401 144.4868,31.901 C143.9788,31.401 143.2478,31.15 142.2928,31.15 C141.6458,31.15 141.0108,31.269 140.3868,31.509 C139.7638,31.747 139.1208,32.09 138.4588,32.536 L137.6738,30.92 C139.2288,29.873 140.8448,29.349 142.5238,29.349 C144.1868,29.349 145.4798,29.772 146.4038,30.619 C147.3278,31.466 147.7898,32.683 147.7898,34.268 L147.7898,38.634 C147.7898,39.173 148.0118,39.449 148.4598,39.465 L148.4598,41.636 C148.2128,41.682 148.0008,41.713 147.8238,41.728 C147.6468,41.743 147.4738,41.751 147.3038,41.751 C146.8108,41.751 146.4298,41.628 146.1618,41.382 C145.8918,41.136 145.7258,40.82 145.6648,40.434 L145.5948,39.673 C145.0558,40.381 144.3898,40.924 143.5968,41.301 C142.8038,41.678 141.9538,41.866 141.0458,41.866" id="Fill-8" fill="#FEFEFE"></path>
                <path d="M150.6539,24.7762 L153.1939,24.7762 L153.1939,38.1482 C153.1939,38.5942 153.3089,38.9452 153.5409,39.1992 C153.7709,39.4532 154.0939,39.5802 154.5099,39.5802 C154.6789,39.5802 154.8759,39.5492 155.0989,39.4882 C155.3219,39.4262 155.5339,39.3572 155.7339,39.2802 L156.1039,41.2662 C155.7339,41.4352 155.2959,41.5702 154.7879,41.6702 C154.2799,41.7702 153.8249,41.8202 153.4249,41.8202 C152.5479,41.8202 151.8659,41.5822 151.3809,41.1042 C150.8959,40.6282 150.6539,39.9502 150.6539,39.0722 L150.6539,24.7762 Z" id="Fill-9" fill="#FEFEFE"></path>
                <polygon id="Fill-10" fill="#FEFEFE" points="162.432 41.6347 165.019 41.6347 165.019 25.2377 162.432 25.2377"></polygon>
                <path d="M178.9918,41.6356 L176.4508,41.6356 L176.4508,34.8686 C176.4508,33.7296 176.2698,32.9026 175.9078,32.3856 C175.5468,31.8696 175.0118,31.6126 174.3038,31.6126 C173.9328,31.6126 173.5638,31.6816 173.1938,31.8206 C172.8248,31.9586 172.4778,32.1556 172.1548,32.4086 C171.8318,32.6626 171.5438,32.9636 171.2888,33.3096 C171.0348,33.6566 170.8388,34.0366 170.6998,34.4526 L170.6998,41.6356 L168.1598,41.6356 L168.1598,29.5566 L170.4698,29.5566 L170.4698,31.9816 C170.9308,31.1656 171.6008,30.5236 172.4778,30.0536 C173.3558,29.5836 174.3258,29.3486 175.3878,29.3486 C176.1118,29.3486 176.7048,29.4806 177.1668,29.7406 C177.6288,30.0036 177.9948,30.3616 178.2638,30.8156 C178.5328,31.2696 178.7218,31.7936 178.8298,32.3856 C178.9368,32.9786 178.9918,33.6066 178.9918,34.2686 L178.9918,41.6356 Z" id="Fill-11" fill="#FEFEFE"></path>
                <path d="M186.1031,41.8661 C185.1331,41.8661 184.1661,41.7091 183.2051,41.3931 C182.2431,41.0781 181.4151,40.6281 180.7221,40.0421 L181.7391,38.4261 C182.4611,38.9491 183.1781,39.3451 183.8861,39.6151 C184.5941,39.8851 185.3181,40.0191 186.0571,40.0191 C186.8111,40.0191 187.4091,39.8731 187.8471,39.5801 C188.2861,39.2881 188.5051,38.8721 188.5051,38.3331 C188.5051,37.8251 188.2581,37.4551 187.7661,37.2241 C187.2731,36.9931 186.5031,36.7391 185.4571,36.4621 C184.7021,36.2621 184.0551,36.0691 183.5171,35.8851 C182.9771,35.7001 182.5391,35.4841 182.2011,35.2381 C181.8621,34.9921 181.6151,34.7071 181.4611,34.3841 C181.3071,34.0601 181.2301,33.6681 181.2301,33.2061 C181.2301,32.5901 181.3491,32.0441 181.5881,31.5661 C181.8271,31.0891 182.1581,30.6841 182.5821,30.3531 C183.0041,30.0221 183.5011,29.7721 184.0711,29.6031 C184.6401,29.4331 185.2561,29.3481 185.9181,29.3481 C186.8271,29.3481 187.6731,29.4871 188.4591,29.7641 C189.2451,30.0421 189.9451,30.4421 190.5611,30.9661 L189.4751,32.4901 C188.3511,31.5971 187.1581,31.1501 185.8951,31.1501 C185.2491,31.1501 184.7071,31.2851 184.2671,31.5541 C183.8291,31.8241 183.6091,32.2511 183.6091,32.8361 C183.6091,33.0831 183.6551,33.2911 183.7481,33.4601 C183.8401,33.6301 183.9901,33.7751 184.1981,33.8981 C184.4061,34.0221 184.6751,34.1341 185.0061,34.2331 C185.3371,34.3341 185.7491,34.4451 186.2421,34.5681 C187.0581,34.7681 187.7621,34.9691 188.3551,35.1691 C188.9481,35.3691 189.4371,35.6041 189.8221,35.8731 C190.2071,36.1421 190.4921,36.4591 190.6761,36.8201 C190.8611,37.1821 190.9541,37.6171 190.9541,38.1251 C190.9541,39.2801 190.5181,40.1921 189.6491,40.8621 C188.7791,41.5321 187.5961,41.8661 186.1031,41.8661" id="Fill-12" fill="#FEFEFE"></path>
                <path d="M192.94,41.6357 L195.48,41.6357 L195.48,29.5567 L192.94,29.5567 L192.94,41.6357 Z M192.94,27.5707 L195.48,27.5707 L195.48,24.7767 L192.94,24.7767 L192.94,27.5707 Z" id="Fill-13" fill="#FEFEFE"></path>
                <path d="M203.9097,39.6952 C204.2947,39.6952 204.6637,39.6312 205.0177,39.4992 C205.3717,39.3692 205.6997,39.1912 205.9997,38.9672 C206.2997,38.7452 206.5567,38.4912 206.7727,38.2062 C206.9887,37.9212 207.1427,37.6172 207.2347,37.2942 L207.2347,34.1302 C207.0807,33.7452 206.8807,33.3942 206.6347,33.0792 C206.3887,32.7632 206.1067,32.4902 205.7917,32.2582 C205.4757,32.0282 205.1407,31.8472 204.7867,31.7162 C204.4327,31.5862 204.0787,31.5192 203.7247,31.5192 C203.1707,31.5192 202.6737,31.6392 202.2347,31.8782 C201.7967,32.1172 201.4227,32.4322 201.1147,32.8252 C200.8067,33.2172 200.5677,33.6602 200.3987,34.1532 C200.2287,34.6452 200.1447,35.1542 200.1447,35.6762 C200.1447,36.2312 200.2407,36.7512 200.4327,37.2362 C200.6257,37.7202 200.8907,38.1442 201.2297,38.5062 C201.5687,38.8682 201.9657,39.1572 202.4197,39.3722 C202.8737,39.5882 203.3707,39.6952 203.9097,39.6952 M203.0777,41.7512 C202.2617,41.7512 201.5147,41.5862 200.8377,41.2552 C200.1597,40.9242 199.5787,40.4732 199.0947,39.9032 C198.6087,39.3342 198.2317,38.6792 197.9627,37.9402 C197.6927,37.2012 197.5577,36.4242 197.5577,35.6072 C197.5577,34.7462 197.6967,33.9332 197.9737,33.1712 C198.2517,32.4092 198.6357,31.7472 199.1287,31.1852 C199.6217,30.6232 200.2107,30.1762 200.8947,29.8452 C201.5807,29.5142 202.3397,29.3482 203.1707,29.3482 C204.1397,29.3482 204.9907,29.5802 205.7217,30.0422 C206.4537,30.5042 207.0577,31.1042 207.5357,31.8432 L207.5357,29.5562 L209.7757,29.5562 L209.7757,41.2892 C209.7757,42.1672 209.6137,42.9442 209.2907,43.6222 C208.9677,44.2992 208.5167,44.8732 207.9397,45.3422 C207.3617,45.8122 206.6807,46.1702 205.8957,46.4162 C205.1107,46.6622 204.2637,46.7862 203.3547,46.7862 C202.0147,46.7862 200.9027,46.5582 200.0177,46.1042 C199.1327,45.6502 198.3887,45.0152 197.7897,44.1992 L199.2217,42.8592 C199.6827,43.5072 200.2797,43.9992 201.0117,44.3382 C201.7417,44.6762 202.5237,44.8452 203.3547,44.8452 C203.8787,44.8452 204.3747,44.7762 204.8457,44.6372 C205.3137,44.5002 205.7257,44.2842 206.0807,43.9912 C206.4337,43.6992 206.7157,43.3292 206.9237,42.8832 C207.1317,42.4362 207.2347,41.9052 207.2347,41.2892 L207.2347,39.4412 C206.8047,40.1802 206.2117,40.7512 205.4567,41.1502 C204.7027,41.5512 203.9097,41.7512 203.0777,41.7512" id="Fill-14" fill="#FEFEFE"></path>
                <path d="M223.4254,41.6356 L220.8844,41.6356 L220.8844,34.8686 C220.8844,33.7596 220.6884,32.9406 220.2954,32.4086 C219.9034,31.8776 219.3374,31.6126 218.5984,31.6126 C218.2434,31.6126 217.8894,31.6816 217.5354,31.8206 C217.1814,31.9586 216.8464,32.1556 216.5304,32.4086 C216.2154,32.6626 215.9344,32.9636 215.6884,33.3096 C215.4424,33.6566 215.2564,34.0366 215.1334,34.4526 L215.1334,41.6356 L212.5934,41.6356 L212.5934,24.7766 L215.1334,24.7766 L215.1334,31.9816 C215.5954,31.1506 216.2234,30.5036 217.0164,30.0416 C217.8094,29.5796 218.6744,29.3486 219.6134,29.3486 C220.3684,29.3486 220.9884,29.4846 221.4734,29.7526 C221.9584,30.0226 222.3474,30.3806 222.6394,30.8266 C222.9324,31.2736 223.1364,31.7936 223.2514,32.3856 C223.3664,32.9786 223.4254,33.6066 223.4254,34.2686 L223.4254,41.6356 Z" id="Fill-15" fill="#FEFEFE"></path>
                <path d="M232.7554,41.0116 C232.4324,41.1656 231.9844,41.3396 231.4154,41.5326 C230.8464,41.7246 230.2374,41.8206 229.5914,41.8206 C229.1914,41.8206 228.8144,41.7666 228.4594,41.6586 C228.1054,41.5516 227.7934,41.3896 227.5244,41.1736 C227.2544,40.9576 227.0424,40.6776 226.8894,40.3306 C226.7344,39.9846 226.6574,39.5656 226.6574,39.0726 L226.6574,31.5196 L225.0654,31.5196 L225.0654,29.5566 L226.6574,29.5566 L226.6574,25.5846 L229.1984,25.5846 L229.1984,29.5566 L231.8314,29.5566 L231.8314,31.5196 L229.1984,31.5196 L229.1984,38.2636 C229.2294,38.6956 229.3634,39.0066 229.6034,39.1996 C229.8414,39.3916 230.1374,39.4886 230.4914,39.4886 C230.8464,39.4886 231.1854,39.4266 231.5084,39.3026 C231.8314,39.1796 232.0694,39.0796 232.2244,39.0026 L232.7554,41.0116 Z" id="Fill-16" fill="#FEFEFE"></path>
                <path d="M238.6676,41.8661 C237.6976,41.8661 236.7306,41.7091 235.7696,41.3931 C234.8076,41.0781 233.9796,40.6281 233.2866,40.0421 L234.3036,38.4261 C235.0256,38.9491 235.7426,39.3451 236.4506,39.6151 C237.1586,39.8851 237.8826,40.0191 238.6216,40.0191 C239.3756,40.0191 239.9736,39.8731 240.4116,39.5801 C240.8506,39.2881 241.0696,38.8721 241.0696,38.3331 C241.0696,37.8251 240.8226,37.4551 240.3306,37.2241 C239.8376,36.9931 239.0676,36.7391 238.0216,36.4621 C237.2666,36.2621 236.6196,36.0691 236.0816,35.8851 C235.5416,35.7001 235.1036,35.4841 234.7656,35.2381 C234.4266,34.9921 234.1796,34.7071 234.0256,34.3841 C233.8716,34.0601 233.7946,33.6681 233.7946,33.2061 C233.7946,32.5901 233.9136,32.0441 234.1526,31.5661 C234.3916,31.0891 234.7226,30.6841 235.1466,30.3531 C235.5686,30.0221 236.0656,29.7721 236.6356,29.6031 C237.2046,29.4331 237.8206,29.3481 238.4826,29.3481 C239.3916,29.3481 240.2376,29.4871 241.0236,29.7641 C241.8096,30.0421 242.5096,30.4421 243.1256,30.9661 L242.0396,32.4901 C240.9156,31.5971 239.7226,31.1501 238.4596,31.1501 C237.8136,31.1501 237.2716,31.2851 236.8316,31.5541 C236.3936,31.8241 236.1736,32.2511 236.1736,32.8361 C236.1736,33.0831 236.2196,33.2911 236.3126,33.4601 C236.4046,33.6301 236.5546,33.7751 236.7626,33.8981 C236.9706,34.0221 237.2396,34.1341 237.5706,34.2331 C237.9016,34.3341 238.3136,34.4451 238.8066,34.5681 C239.6226,34.7681 240.3266,34.9691 240.9196,35.1691 C241.5126,35.3691 242.0016,35.6041 242.3866,35.8731 C242.7716,36.1421 243.0566,36.4591 243.2406,36.8201 C243.4256,37.1821 243.5186,37.6171 243.5186,38.1251 C243.5186,39.2801 243.0826,40.1921 242.2136,40.8621 C241.3436,41.5321 240.1606,41.8661 238.6676,41.8661" id="Fill-17" fill="#FEFEFE"></path>
                <path d="M253.8873,33.6444 L258.1593,33.6444 C258.5293,33.6444 258.8643,33.5684 259.1643,33.4144 C259.4643,33.2594 259.7223,33.0434 259.9383,32.7674 C260.1543,32.4904 260.3233,32.1664 260.4463,31.7964 C260.5693,31.4274 260.6303,31.0194 260.6303,30.5734 C260.6303,30.1114 260.5613,29.6954 260.4233,29.3264 C260.2843,28.9564 260.0913,28.6364 259.8453,28.3674 C259.5993,28.0984 259.3183,27.8904 259.0023,27.7444 C258.6873,27.5974 258.3603,27.5244 258.0213,27.5244 L253.8873,27.5244 L253.8873,33.6444 Z M251.3003,41.6354 L251.3003,25.2384 L258.1833,25.2384 C258.9213,25.2384 259.6033,25.3924 260.2273,25.7004 C260.8503,26.0074 261.3853,26.4124 261.8313,26.9124 C262.2783,27.4134 262.6283,27.9824 262.8823,28.6214 C263.1363,29.2604 263.2633,29.9114 263.2633,30.5734 C263.2633,31.2654 263.1443,31.9314 262.9063,32.5714 C262.6663,33.2094 262.3313,33.7794 261.9013,34.2804 C261.4703,34.7804 260.9493,35.1804 260.3423,35.4804 C259.7343,35.7814 259.0603,35.9314 258.3213,35.9314 L253.8873,35.9314 L253.8873,41.6354 L251.3003,41.6354 Z" id="Fill-18" fill="#FEFEFE"></path>
                <path d="M265.1578,24.7762 L267.6978,24.7762 L267.6978,38.1482 C267.6978,38.5942 267.8128,38.9452 268.0448,39.1992 C268.2748,39.4532 268.5978,39.5802 269.0138,39.5802 C269.1828,39.5802 269.3798,39.5492 269.6028,39.4882 C269.8258,39.4262 270.0378,39.3572 270.2378,39.2802 L270.6078,41.2662 C270.2378,41.4352 269.7998,41.5702 269.2918,41.6702 C268.7838,41.7702 268.3288,41.8202 267.9288,41.8202 C267.0518,41.8202 266.3698,41.5822 265.8848,41.1042 C265.3998,40.6282 265.1578,39.9502 265.1578,39.0722 L265.1578,24.7762 Z" id="Fill-19" fill="#FEFEFE"></path>
                <path d="M275.7584,39.996 C276.3734,39.996 276.9544,39.885 277.5014,39.661 C278.0484,39.438 278.4754,39.126 278.7834,38.725 C279.1074,38.448 279.2684,38.156 279.2684,37.848 L279.2684,36.255 C278.8374,36.085 278.3794,35.954 277.8944,35.862 C277.4094,35.769 276.9364,35.724 276.4744,35.724 C275.5654,35.724 274.8224,35.92 274.2454,36.312 C273.6674,36.705 273.3794,37.225 273.3794,37.871 C273.3794,38.472 273.6024,38.976 274.0494,39.384 C274.4954,39.792 275.0654,39.996 275.7584,39.996 M275.0654,41.866 C274.4804,41.866 273.9374,41.77 273.4374,41.578 C272.9364,41.386 272.5054,41.12 272.1434,40.781 C271.7814,40.442 271.4964,40.042 271.2884,39.58 C271.0814,39.118 270.9774,38.618 270.9774,38.079 C270.9774,37.51 271.1004,36.993 271.3474,36.531 C271.5934,36.069 271.9434,35.67 272.3984,35.331 C272.8524,34.992 273.3914,34.73 274.0144,34.546 C274.6384,34.36 275.3264,34.268 276.0814,34.268 C276.6514,34.268 277.2134,34.318 277.7674,34.418 C278.3214,34.518 278.8214,34.653 279.2684,34.822 L279.2684,33.991 C279.2684,33.099 279.0144,32.401 278.5064,31.901 C277.9984,31.401 277.2674,31.15 276.3124,31.15 C275.6654,31.15 275.0304,31.269 274.4064,31.509 C273.7834,31.747 273.1404,32.09 272.4784,32.536 L271.6934,30.92 C273.2484,29.873 274.8644,29.349 276.5434,29.349 C278.2064,29.349 279.4994,29.772 280.4234,30.619 C281.3474,31.466 281.8094,32.683 281.8094,34.268 L281.8094,38.634 C281.8094,39.173 282.0314,39.449 282.4794,39.465 L282.4794,41.636 C282.2324,41.682 282.0204,41.713 281.8434,41.728 C281.6664,41.743 281.4934,41.751 281.3234,41.751 C280.8304,41.751 280.4494,41.628 280.1814,41.382 C279.9114,41.136 279.7454,40.82 279.6844,40.434 L279.6144,39.673 C279.0754,40.381 278.4094,40.924 277.6164,41.301 C276.8234,41.678 275.9734,41.866 275.0654,41.866" id="Fill-20" fill="#FEFEFE"></path>
                <path d="M291.2779,41.0116 C290.9549,41.1656 290.5069,41.3396 289.9379,41.5326 C289.3689,41.7246 288.7599,41.8206 288.1139,41.8206 C287.7139,41.8206 287.3369,41.7666 286.9819,41.6586 C286.6279,41.5516 286.3159,41.3896 286.0469,41.1736 C285.7769,40.9576 285.5649,40.6776 285.4119,40.3306 C285.2569,39.9846 285.1799,39.5656 285.1799,39.0726 L285.1799,31.5196 L283.5879,31.5196 L283.5879,29.5566 L285.1799,29.5566 L285.1799,25.5846 L287.7209,25.5846 L287.7209,29.5566 L290.3539,29.5566 L290.3539,31.5196 L287.7209,31.5196 L287.7209,38.2636 C287.7519,38.6956 287.8859,39.0066 288.1259,39.1996 C288.3639,39.3916 288.6599,39.4886 289.0139,39.4886 C289.3689,39.4886 289.7079,39.4266 290.0309,39.3026 C290.3539,39.1796 290.5919,39.0796 290.7469,39.0026 L291.2779,41.0116 Z" id="Fill-21" fill="#FEFEFE"></path>
                <path d="M293.4947,41.6356 L293.4947,31.8206 L291.8787,31.8206 L291.8787,29.8576 L293.4947,29.8576 L293.4947,29.3716 C293.4947,27.8786 293.8417,26.7006 294.5347,25.8386 C295.2267,24.9766 296.1667,24.5446 297.3517,24.5446 C297.8447,24.5446 298.3297,24.6116 298.8067,24.7406 C299.2837,24.8716 299.7387,25.0536 300.1697,25.2836 L299.6157,27.1776 C299.3847,27.0386 299.1107,26.9236 298.7957,26.8316 C298.4797,26.7396 298.1757,26.6936 297.8837,26.6936 C297.2827,26.6936 296.8247,26.9156 296.5097,27.3636 C296.1927,27.8096 296.0357,28.4556 296.0357,29.3026 L296.0357,29.8576 L299.1307,29.8576 L299.1307,31.8206 L296.0357,31.8206 L296.0357,41.6356 L293.4947,41.6356 Z" id="Fill-22" fill="#FEFEFE"></path>
                <path d="M302.0172,35.6307 C302.0172,36.2157 302.1102,36.7547 302.2942,37.2477 C302.4792,37.7397 302.7332,38.1677 303.0562,38.5287 C303.3802,38.8917 303.7612,39.1757 304.2002,39.3837 C304.6382,39.5917 305.1122,39.6947 305.6212,39.6947 C306.1282,39.6947 306.6022,39.5917 307.0402,39.3837 C307.4792,39.1757 307.8612,38.8877 308.1842,38.5177 C308.5072,38.1487 308.7612,37.7177 308.9462,37.2247 C309.1302,36.7327 309.2232,36.1927 309.2232,35.6077 C309.2232,35.0377 309.1302,34.5027 308.9462,34.0027 C308.7612,33.5027 308.5072,33.0677 308.1842,32.6977 C307.8612,32.3277 307.4792,32.0397 307.0402,31.8317 C306.6022,31.6237 306.1282,31.5197 305.6212,31.5197 C305.1272,31.5197 304.6622,31.6277 304.2232,31.8437 C303.7842,32.0597 303.4032,32.3517 303.0792,32.7207 C302.7562,33.0907 302.4982,33.5257 302.3062,34.0257 C302.1132,34.5267 302.0172,35.0617 302.0172,35.6307 M305.6212,41.8657 C304.6652,41.8657 303.8072,41.6967 303.0452,41.3587 C302.2832,41.0207 301.6322,40.5657 301.0932,39.9957 C300.5542,39.4267 300.1382,38.7607 299.8462,37.9977 C299.5532,37.2357 299.4082,36.4397 299.4082,35.6077 C299.4082,34.7767 299.5532,33.9797 299.8462,33.2177 C300.1382,32.4547 300.5582,31.7887 301.1052,31.2197 C301.6512,30.6507 302.3062,30.1957 303.0682,29.8577 C303.8302,29.5187 304.6812,29.3487 305.6212,29.3487 C306.5592,29.3487 307.4102,29.5187 308.1722,29.8577 C308.9342,30.1957 309.5882,30.6507 310.1352,31.2197 C310.6822,31.7887 311.1012,32.4547 311.3942,33.2177 C311.6862,33.9797 311.8322,34.7767 311.8322,35.6077 C311.8322,36.4397 311.6862,37.2357 311.3942,37.9977 C311.1012,38.7607 310.6822,39.4267 310.1352,39.9957 C309.5882,40.5657 308.9342,41.0207 308.1722,41.3587 C307.4102,41.6967 306.5592,41.8657 305.6212,41.8657" id="Fill-23" fill="#FEFEFE"></path>
                <path d="M320.6548,31.7508 C319.6698,31.7818 318.7958,32.0088 318.0338,32.4328 C317.2708,32.8548 316.7278,33.4598 316.4048,34.2448 L316.4048,41.6358 L313.8648,41.6358 L313.8648,29.5568 L316.2198,29.5568 L316.2198,32.2588 C316.6358,31.4278 317.1788,30.7618 317.8478,30.2618 C318.5178,29.7608 319.2378,29.4868 320.0088,29.4408 L320.3888,29.4408 C320.4888,29.4408 320.5778,29.4488 320.6548,29.4648 L320.6548,31.7508 Z" id="Fill-24" fill="#FEFEFE"></path>
                <path d="M340.7486,41.6356 L338.2076,41.6356 L338.2076,34.8686 C338.2076,33.7446 338.0226,32.9206 337.6536,32.3976 C337.2836,31.8736 336.7446,31.6126 336.0366,31.6126 C335.3126,31.6126 334.6546,31.8776 334.0616,32.4086 C333.4696,32.9406 333.0416,33.6296 332.7796,34.4766 L332.7796,41.6356 L330.2396,41.6356 L330.2396,34.8686 C330.2396,33.7296 330.0556,32.9026 329.6856,32.3856 C329.3156,31.8696 328.7846,31.6126 328.0926,31.6126 C327.3676,31.6126 326.7066,31.8736 326.1056,32.3976 C325.5056,32.9206 325.0736,33.6066 324.8116,34.4526 L324.8116,41.6356 L322.2716,41.6356 L322.2716,29.5566 L324.5816,29.5566 L324.5816,31.9816 C325.0586,31.1356 325.6856,30.4846 326.4636,30.0306 C327.2406,29.5756 328.1306,29.3486 329.1316,29.3486 C330.1326,29.3486 330.9216,29.6116 331.4986,30.1336 C332.0756,30.6576 332.4346,31.3126 332.5726,32.0976 C333.0806,31.2036 333.7196,30.5236 334.4896,30.0536 C335.2596,29.5836 336.1366,29.3486 337.1226,29.3486 C337.8306,29.3486 338.4196,29.4846 338.8896,29.7526 C339.3586,30.0226 339.7316,30.3806 340.0096,30.8266 C340.2866,31.2736 340.4786,31.7936 340.5866,32.3856 C340.6936,32.9786 340.7486,33.6066 340.7486,34.2686 L340.7486,41.6356 Z" id="Fill-25" fill="#FEFEFE"></path>
                <path d="M52.6704,37.4305 C52.2954,38.3505 51.7934,39.1475 51.1624,39.8215 C50.5314,40.4955 49.7984,41.0195 48.9644,41.3935 C48.1294,41.7685 47.2524,41.9555 46.3324,41.9555 C45.7124,41.9555 45.1714,41.8805 44.7124,41.7305 C44.2514,41.5815 43.8504,41.4205 43.5084,41.2495 C43.1234,41.0355 42.7814,40.7895 42.4824,40.5115 L42.4824,46.4875 L38.7914,46.4875 L38.7914,27.0335 L42.1604,28.4775 C42.4824,28.1785 42.8554,27.9105 43.2844,27.6755 C43.6474,27.4825 44.0864,27.3015 44.5994,27.1295 C45.1134,26.9585 45.6904,26.8735 46.3324,26.8735 C47.2524,26.8735 48.1294,27.0605 48.9644,27.4345 C49.7984,27.8095 50.5314,28.3335 51.1624,29.0065 C51.7934,29.6805 52.2954,30.4785 52.6704,31.3975 C53.0444,32.3175 53.2324,33.3235 53.2324,34.4145 C53.2324,35.5055 53.0444,36.5115 52.6704,37.4305 L52.6704,37.4305 Z M32.4404,41.7955 L36.1304,41.7955 L36.1304,27.0335 L32.4404,27.0335 L32.4404,41.7955 Z M29.7784,41.7955 L26.4094,40.3505 C26.0664,40.6505 25.6914,40.9185 25.2854,41.1535 C24.9214,41.3675 24.4834,41.5545 23.9704,41.7145 C23.4564,41.8755 22.8784,41.9555 22.2374,41.9555 C21.3164,41.9555 20.4404,41.7685 19.6054,41.3935 C18.7714,41.0195 18.0384,40.4955 17.4074,39.8215 C16.7764,39.1475 16.2734,38.3505 15.8994,37.4305 C15.5244,36.5115 15.3374,35.5055 15.3374,34.4145 C15.3374,33.3235 15.5244,32.3175 15.8994,31.3975 C16.2734,30.4785 16.7764,29.6805 17.4074,29.0065 C18.0384,28.3335 18.7714,27.8095 19.6054,27.4345 C20.4404,27.0605 21.3164,26.8735 22.2374,26.8735 C22.8364,26.8735 23.3714,26.9535 23.8414,27.1135 C24.3124,27.2745 24.7184,27.4405 25.0614,27.6115 C25.4464,27.8255 25.7884,28.0605 26.0884,28.3175 L26.0884,22.0205 L29.7784,22.0205 L29.7784,41.7955 Z M34.3864,0.0005 C15.3954,0.0005 0.0004,15.3955 0.0004,34.3865 C0.0004,53.3775 15.3954,68.7725 34.3864,68.7725 C53.3774,68.7725 68.7724,53.3775 68.7724,34.3865 C68.7724,15.3955 53.3774,0.0005 34.3864,0.0005 L34.3864,0.0005 Z" id="Fill-26" fill="#4065A9"></path>
                <path d="M45.8511,30.4028 C44.8031,30.4028 43.9261,30.7668 43.2201,31.4938 C42.5141,32.2218 42.1611,33.1948 42.1611,34.4138 C42.1611,35.6338 42.5141,36.6078 43.2201,37.3338 C43.9261,38.0618 44.8031,38.4258 45.8511,38.4258 C46.8991,38.4258 47.7771,38.0618 48.4831,37.3338 C49.1881,36.6078 49.5421,35.6338 49.5421,34.4138 C49.5421,33.1948 49.1881,32.2218 48.4831,31.4938 C47.7771,30.7668 46.8991,30.4028 45.8511,30.4028" id="Fill-27" fill="#4065A9"></path>
                <path d="M22.7185,30.4028 C21.6705,30.4028 20.7935,30.7668 20.0875,31.4938 C19.3815,32.2218 19.0285,33.1948 19.0285,34.4138 C19.0285,35.6338 19.3815,36.6078 20.0875,37.3338 C20.7935,38.0618 21.6705,38.4258 22.7185,38.4258 C23.7665,38.4258 24.6445,38.0618 25.3505,37.3338 C26.0555,36.6078 26.4095,35.6338 26.4095,34.4138 C26.4095,33.1948 26.0555,32.2218 25.3505,31.4938 C24.6445,30.7668 23.7665,30.4028 22.7185,30.4028" id="Fill-28" fill="#4065A9"></path>
            </g>
        </g>
    </g>
</svg>