<?xml version="1.0" encoding="UTF-8"?>
<svg width="620px" height="415px" viewBox="0 0 620 415" version="1.1" xmlns="http://www.w3.org/2000/svg" xmlns:xlink="http://www.w3.org/1999/xlink">
    <!-- Generator: Sketch 56.3 (81716) - https://sketch.com -->
    <title>2456057</title>
    <desc>Created with Sketch.</desc>
    <g id="landingpage" stroke="none" stroke-width="1" fill="none" fill-rule="evenodd">
        <g id="homepage" transform="translate(-805.000000, -4785.000000)">
            <g id="contact" transform="translate(0.000000, 4679.000000)">
                <g id="2456057" transform="translate(805.000000, 106.000000)">
                    <g id="OBJECTS">
                        <g id="Group">
                            <g fill-rule="nonzero" id="Path">
                                <path d="M574.513081,445.963472 C610.948322,445.963472 632.895535,408.65506 611.522106,382.108689 C611.091768,381.534714 610.661431,380.960738 610.087647,380.386763 C597.034077,365.606892 577.095106,360.297618 559.594715,351.974972 C554.717556,349.67907 549.840398,346.952686 546.397698,342.647869 C541.663986,336.621125 540.516419,328.298479 541.52054,320.549809 C545.537023,288.263683 580.681252,268.461526 586.419085,236.462388 C590.72246,212.21192 575.94754,187.674464 555.865123,174.903508 C535.782707,162.132551 511.540361,158.832192 488.158691,157.827734 C464.633574,156.823277 440.965012,157.684241 418.157125,151.944485 C412.1324,150.366052 405.964229,148.213644 401.8043,143.334851 C397.214034,137.882083 396.209913,129.846425 396.927142,122.528237 C398.935384,102.869573 443.833929,34.996962 421.312933,12.6119146 C412.419292,3.85878716 400.513288,-1.02000521 388.320392,0.27143983 C376.270942,1.41939097 364.938722,7.01565281 354.32373,13.3293841 C331.94618,26.5308223 253.911648,113.918603 225.939711,127.120041 C198.398111,140.034492 166.696583,136.30365 136.429512,135.586181 C106.162442,135.012205 72.5961173,139.460516 52.8005926,163.423996 C45.7717468,171.890136 41.0380344,183.369647 43.3331677,194.275183 C44.767626,201.16289 48.9275551,207.04614 53.5178217,212.068426 C64.1328132,223.547937 77.903613,231.440102 87.9448212,243.493589 C97.9860294,255.547076 103.293525,274.631763 93.8261003,287.259226 C90.0965087,292.138018 84.789013,295.294884 79.624963,298.164762 C50.5054593,314.66656 17.7998097,331.455345 5.03313072,363.454483 C-1.42193169,379.812787 -1.27848586,397.893018 3.45522657,414.825297 C8.6192765,432.762034 26.5500054,445.389496 47.2062051,445.389496 L574.513081,445.389496 L574.513081,445.963472 Z" fill="#E4ECF3"></path>
                                <path d="M610.083825,380.377651 C597.025185,365.595727 577.07847,360.285715 559.571282,351.961913 C554.692229,349.665692 549.813177,346.938929 546.36914,342.633514 C541.633589,336.605933 540.485576,328.282131 541.490087,320.532384 C545.50813,288.241772 580.666009,268.436864 586.406071,236.43328 C590.711117,212.179443 575.930458,187.638578 555.840242,174.865847 C535.750025,162.093116 511.498264,158.792298 488.107513,157.787701 C464.573259,156.783104 440.895505,157.644187 418.078759,151.903634 C412.051694,150.324982 405.881128,148.172274 401.719583,143.292804 C397.127533,137.839279 396.123023,129.802504 396.84053,122.483299 C398.849552,102.821904 443.765535,34.9398623 421.235793,12.5517048 C413.48671,4.94547184 403.441601,0.353029275 393.10949,0.066001615 C407.316143,3.94087503 417.648254,12.1211633 410.186174,28.7687676 C392.535484,67.5175018 230.378739,195.388324 344.318965,208.017541 C458.259191,220.646759 269.55466,321.967523 355.512086,328.9997 C421.092291,334.309712 286.487843,411.233125 219.32912,445.963472 L574.495442,445.963472 C610.944835,445.963472 632.900571,408.649876 611.518841,382.099817 C611.088336,381.525762 610.51433,380.951707 610.083825,380.377651 Z" fill="#C2D2E1" opacity="0.41"></path>
                                <path d="M92.9846321,107.442785 C92.9846321,107.442785 211.698209,148.435296 264.491853,52.5446876 C317.285497,-43.3459212 -6.5443689,71.8097192 92.9846321,107.442785 Z" fill="#E4ECF3"></path>
                            </g>
                            <g transform="translate(39.220399, 233.940213)" fill-rule="nonzero" id="Path">
                                <g>
                                    <g transform="translate(20.794641, 0.000000)">
                                        <path d="M25.6874979,109.018765 C25.6874979,109.018765 22.0178554,105.592811 24.4642837,92.6231259 C26.9107121,79.6534412 33.1491045,67.050823 30.091069,52.9799386 C27.0330335,38.9090542 2.93571405,3.18124343 2.93571405,0.856488615 C2.81339263,-1.4682662 -4.52589249,42.3350087 7.95089221,59.5871365 C20.4276769,76.8392643 21.8955339,82.8346846 21.2839268,91.8889928 C20.6723198,100.943301 21.4062483,108.284632 22.7517839,110.364676 L25.6874979,109.018765 Z" fill="#4F80D9"></path>
                                        <path d="M23.363391,82.7123291 C21.8955339,88.4630384 21.039284,103.1457 23.363391,106.571655 C23.6080338,106.938721 23.8526766,106.69401 24.2196409,106.082233 C23.4857124,103.635122 22.9964267,99.4750348 24.3419623,92.3784149 C26.7883907,79.4087301 33.026783,66.806112 29.9687476,52.7352276 C26.9107121,38.6643432 2.81339263,2.93653239 2.81339263,0.611777582 C2.81339263,0.611777582 6.48303519,30.3441681 18.5928556,50.6551838 C27.3999978,65.4602013 24.831248,76.9616198 23.363391,82.7123291 Z" fill="#4065A9"></path>
                                    </g>
                                    <g transform="translate(47.705353, 31.812434)">
                                        <path d="M3.05803547,76.2274867 C3.05803547,76.2274867 -4.03660682,58.6082924 7.95089221,43.3138528 C19.9383912,28.0194133 39.142854,8.44253063 39.5098182,0.611777582 C39.5098182,0.611777582 44.402675,37.5631435 28.8678548,47.9633624 C13.3330346,58.3635813 2.32410695,60.0765586 5.01517817,76.1051312 L3.05803547,76.2274867 Z" fill="#4F80D9"></path>
                                        <path d="M19.9383912,40.4996759 C2.56874979,53.1022941 1.10089277,67.7849561 3.79196398,74.5145095 C4.03660682,75.0039316 4.40357107,75.3709981 4.89285675,75.4933536 C2.56874979,59.954203 13.4553561,58.2412258 28.7455334,47.8410069 C44.2803536,37.440788 39.3874968,0.489422066 39.3874968,0.489422066 C39.3874968,0.489422066 37.3080327,27.8970577 19.9383912,40.4996759 Z" fill="#4065A9"></path>
                                    </g>
                                    <g transform="translate(0.000000, 24.471103)">
                                        <path d="M39.142854,83.9358843 C39.142854,83.9358843 41.4669609,74.636865 40.2437467,64.4813571 C39.0205326,54.4482048 28.5008906,48.6974955 18.5928556,38.0525656 C13.5776775,32.5465674 11.987499,3.54830998 15.1678559,0.856488615 C15.1678559,0.856488615 -2.20178554,21.9016374 0.489285675,37.3184325 C3.18035689,52.7352276 31.558926,62.7683799 34.1276758,70.2320664 C36.6964256,77.6957529 36.5741042,83.9358843 36.5741042,83.9358843 L39.142854,83.9358843 Z" fill="#4F80D9"></path>
                                        <g transform="translate(7.098638, 0.000000)">
                                            <path d="M2.19778953,9.17666373 C-3.55131715,24.7158143 2.32011095,43.5585638 21.4022523,55.3046934 C35.4692154,63.8695796 30.9433229,81.8558405 30.9433229,81.8558405 L33.2674299,74.7592205 C33.5120727,71.7003326 33.5120727,68.1520226 33.022787,64.4813571 C31.7995729,54.4482048 21.2799308,48.6974955 11.3718959,38.0525656 C6.47903919,32.7912784 4.88886074,5.62835375 7.57993195,1.22355516 C6.96832486,2.32475481 4.76653932,5.26128721 2.19778953,9.17666373 Z" fill="#4065A9"></path>
                                            <path d="M7.82457479,1.34591068 C8.06921763,1.10119965 8.19153905,0.978844131 8.19153905,0.978844131 C8.06921763,0.978844131 7.94689621,1.10119965 7.82457479,1.34591068 Z" fill="#49B4D6"></path>
                                        </g>
                                    </g>
                                    <g transform="translate(53.821424, 69.742644)">
                                        <path d="M0.611607093,37.5631435 C0.611607093,37.5631435 4.64821391,22.3910595 14.8008917,20.4333712 C24.831248,18.3533275 36.4517828,3.54830998 37.0633899,0.611777582 C37.0633899,0.489422066 35.35089,28.6311908 0.611607093,37.5631435 Z" fill="#4F80D9"></path>
                                        <path d="M14.1892846,25.3275919 C8.07321363,28.3864798 5.50446384,32.5465674 4.52589249,36.3395884 C35.4732114,26.4287915 37.0633899,0.489422066 37.0633899,0.489422066 C36.9410684,1.10119965 36.3294613,2.08004378 35.4732114,3.42595446 C32.4151759,8.80959718 25.0758908,19.9439492 14.1892846,25.3275919 Z" fill="#4065A9"></path>
                                    </g>
                                </g>
                                <path d="M76.2062438,101.677434 L23.6080338,101.677434 L29.8464262,141.07591 C30.3357118,144.012443 32.9044616,146.214842 35.9624971,146.214842 L63.974102,146.214842 C67.0321374,146.214842 69.6008872,144.012443 70.0901729,141.07591 L76.2062438,101.677434 Z" fill="#A2ACB1"></path>
                                <polygon fill="#89949A" points="75.2276725 108.284632 76.2062438 101.677434 23.6080338 101.677434 24.5866052 108.284632"></polygon>
                                <path d="M63.4848163,101.677434 L57.2464239,141.07591 C56.7571383,144.012443 54.1883885,146.214842 51.130353,146.214842 L63.8517805,146.214842 C66.909816,146.214842 69.4785658,144.012443 69.9678515,141.07591 L76.2062438,101.677434 L63.4848163,101.677434 Z" fill="#89949A"></path>
                            </g>
                            <g transform="translate(117.506107, 120.149582)">
                                <g transform="translate(140.669631, 44.047986)" fill-rule="nonzero">
                                    <rect id="Rectangle" fill="#FFFFFF" x="53.8214242" y="126.393248" width="11.0089277" height="89.808949"></rect>
                                    <rect id="Rectangle" fill="#E8F2FC" x="60.5491022" y="126.393248" width="4.28124965" height="89.808949"></rect>
                                    <path d="M90.8848141,208.738511 L30.9473189,208.738511 C28.8678548,208.738511 27.2776764,210.329133 27.2776764,212.409176 L27.2776764,212.409176 C27.2776764,214.48922 28.8678548,216.079842 30.9473189,216.079842 L90.8848141,216.079842 C92.9642782,216.079842 94.5544566,214.48922 94.5544566,212.409176 L94.5544566,212.409176 C94.5544566,210.451488 92.9642782,208.738511 90.8848141,208.738511 Z" id="Path" fill="#FFFFFF"></path>
                                    <path d="M90.8848141,208.738511 L30.9473189,208.738511 C29.6017833,208.738511 28.5008906,209.472644 27.766962,210.573844 L79.753565,210.573844 C81.8330291,210.573844 83.4232075,212.164465 83.4232075,214.244509 C83.4232075,214.978642 83.1785647,215.59042 82.9339219,216.079842 L91.0071355,216.079842 C93.0865996,216.079842 94.6767781,214.48922 94.6767781,212.409176 C94.5544566,210.451488 92.9642782,208.738511 90.8848141,208.738511 Z" id="Path" fill="#E8F2FC"></path>
                                    <rect id="Rectangle" fill="#E8F2FC" x="53.8214242" y="126.393248" width="11.0089277" height="7.95310857"></rect>
                                    <path d="M121.709812,1.22355516 C120.119633,0.489422066 118.407133,0.122355516 116.572312,0.122355516 L54.7999956,0.122355516 C48.8062461,0.122355516 43.546425,4.40479859 42.4455323,10.4002189 L23.1187481,111.588231 C22.7517839,113.178853 22.8741053,114.89183 23.1187481,116.360096 C23.1187481,116.360096 23.1187481,116.482452 23.1187481,116.482452 L5.99374952,116.482452 C3.18035689,116.482452 0.856249931,118.807206 0.856249931,121.621383 C0.856249931,124.43556 3.18035689,126.760315 5.99374952,126.760315 L61.5276736,126.760315 L61.5276736,126.637959 L97.2455278,126.637959 C103.239277,126.637959 108.499098,122.355516 109.599991,116.360096 L128.926775,15.172084 C130.149989,9.05430821 126.847311,3.42595446 121.709812,1.22355516 Z" id="Path" fill="#FF9933"></path>
                                    <path d="M128.926775,15.0497285 L109.599991,116.237741 C108.499098,122.110805 103.239277,126.393248 97.2455278,126.393248 L61.4053522,126.393248 L61.4053522,126.515604 L5.8714281,126.515604 C3.05803547,126.515604 0.733928512,124.190849 0.733928512,121.376672 C0.733928512,118.562495 3.05803547,116.237741 5.8714281,116.237741 L22.9964267,116.237741 C22.9964267,116.237741 22.9964267,116.115385 22.9964267,116.115385 C23.1187481,116.115385 23.363391,116.115385 23.4857124,116.115385 L85.2580288,116.115385 C93.5758853,116.115385 100.670528,110.24232 102.260706,102.044501 L121.58749,0.978844131 C126.847311,3.42595446 130.149989,9.05430821 128.926775,15.0497285 Z" id="Path" fill="#E8F2FC" opacity="0.654296875"></path>
                                    <path d="M102.505349,101.677434 L102.383027,102.289212 C100.792849,110.487031 93.6982067,116.360096 85.3803502,116.360096 L23.6080338,116.360096 C23.4857124,116.360096 23.2410695,116.360096 23.1187481,116.360096 C23.1187481,116.360096 23.1187481,116.482452 23.1187481,116.482452 L5.99374952,116.482452 C3.42499972,116.482452 1.34553561,118.317784 0.978571349,120.764895 L0.978571349,106.938721 C0.978571349,106.938721 0.978571349,106.816366 0.978571349,106.816366 C0.611607093,104.124544 2.93571405,101.677434 5.62678526,101.677434 L102.505349,101.677434 Z" id="Path" fill="#FFFFFF"></path>
                                    <path d="M121.709812,1.22355516 L102.383027,102.289212 C100.792849,110.487031 93.6982067,116.360096 85.3803502,116.360096 L23.6080338,116.360096 C23.4857124,116.360096 23.2410695,116.360096 23.1187481,116.360096 C22.8741053,114.89183 22.7517839,113.178853 23.1187481,111.588231 L42.4455323,10.4002189 C43.546425,4.52715411 48.8062461,0.122355516 54.7999956,0.122355516 L116.572312,0.122355516 C118.407133,0.122355516 120.119633,0.489422066 121.709812,1.22355516 Z" id="Path" fill="#FFFFFF"></path>
                                </g>
                                <g transform="translate(6.116071, 20.800438)" fill-rule="nonzero">
                                    <path d="M109.844634,0.122355516 L4.64821391,0.122355516 C2.20178554,0.122355516 0.366964256,2.32475481 0.733928512,4.77186514 L9.78571349,66.5614009 C10.0303563,68.5190892 11.7428562,69.9873554 13.6999989,69.9873554 L118.896419,69.9873554 C121.342847,69.9873554 123.177669,67.7849561 122.810704,65.3378458 L113.758919,3.54830998 C113.514277,1.59062171 111.801777,0.122355516 109.844634,0.122355516 Z" id="Path" fill="#1D54B5"></path>
                                    <path d="M95.1660637,0.122355516 L4.77053533,0.122355516 C2.32410695,0.122355516 0.489285675,2.32475481 0.856249931,4.77186514 L4.89285675,32.0571453 C14.5562488,36.3395884 25.5651765,38.6643432 37.1857113,38.6643432 C67.2767803,38.7866987 85.013386,22.7581261 95.1660637,0.122355516 Z" id="Path" fill="#3070CE"></path>
                                    <g transform="translate(39.142854, 46.495096)" id="Path">
                                        <path d="M22.9964267,0.856488615 L9.54107066,0.856488615 L3.05803547,0.856488615 C1.34553561,0.856488615 1.94289029e-16,2.32475481 0.244642837,4.03773204 L6.23839235,45.5162521 C6.23839235,45.6386076 6.23839235,45.7609631 6.23839235,45.8833187 L6.48303519,47.4739404 C6.72767803,48.819851 7.8285708,49.9210507 9.29642782,49.9210507 L15.779463,49.9210507 L28.9901762,49.9210507 L22.9964267,0.856488615 Z" fill="#4286E8"></path>
                                        <path d="M52.1089244,47.1068738 C52.1089244,45.5162521 50.7633888,44.2926969 49.2955317,44.2926969 L34.2499972,44.2926969 C32.0482117,44.2926969 30.091069,42.7020752 29.8464262,40.4996759 L25.4428551,8.1978196 L28.0116049,8.1978196 C29.7241047,8.1978196 31.0696403,6.7295534 30.8249975,5.01657617 L30.5803547,3.42595446 C30.3357118,2.08004378 29.2348191,0.978844131 27.766962,0.978844131 L22.507141,0.978844131 C20.1830341,0.978844131 18.2258914,3.05888791 18.5928556,5.38364272 L24.0973195,46.3727407 C24.3419623,48.4527845 26.1767836,49.9210507 28.1339263,49.9210507 L49.1732103,49.9210507 C50.8857102,49.9210507 52.1089244,48.6974955 52.1089244,47.1068738 L52.1089244,47.1068738 Z" fill="#1D54B5"></path>
                                    </g>
                                    <g transform="translate(75.839280, 58.730648)" fill="#4286E8" id="Oval">
                                        <ellipse cx="2.69107121" cy="2.32475481" rx="1.83482128" ry="1.83533275"></ellipse>
                                        <ellipse cx="12.3544633" cy="2.32475481" rx="1.83482128" ry="1.83533275"></ellipse>
                                        <ellipse cx="20.7946412" cy="2.32475481" rx="1.83482128" ry="1.83533275"></ellipse>
                                    </g>
                                    <path d="M107.76517,28.8759019 L113.269634,66.6837564 C113.514277,68.6414447 115.226776,70.1097109 117.183919,70.1097109 L118.774098,70.1097109 C121.220526,70.1097109 123.055347,67.9073116 122.688383,65.4602013 L113.636598,3.67066549 C113.391955,1.71297723 111.679455,0.244711033 109.722313,0.244711033 L108.132134,0.244711033 C105.685706,0.244711033 103.850884,2.44711033 104.217849,4.89422066 L107.76517,28.8759019" id="Path" fill="#4286E8"></path>
                                    <path d="M68.0107088,6.97426444 L31.3142832,6.97426444 C30.4580333,6.97426444 29.7241047,7.83075305 29.8464262,8.68724166 L30.091069,10.1555079 C30.2133904,10.889641 30.8249975,11.379063 31.558926,11.379063 L68.2553516,11.379063 C69.1116016,11.379063 69.8455301,10.5225744 69.7232086,9.6660858 L69.4785658,8.1978196 C69.3562444,7.4636865 68.7446373,6.97426444 68.0107088,6.97426444 Z" id="Path" fill="#4286E8"></path>
                                </g>
                                <g transform="translate(120.960624, 0.000000)">
                                    <path d="M102.275965,46.6174518 C101.052751,37.6854991 87.9643589,41.8455866 92.9795371,33.5254115 C97.5054296,25.817014 92.2456086,22.3910595 86.0072162,21.1675043 C78.056324,19.5768826 82.5822165,16.5179947 78.6679311,9.05430821 C73.7750744,-0.367066549 66.068825,2.44711033 66.068825,2.44711033 C66.068825,2.44711033 56.5277543,-2.69182136 46.7420408,5.50599824 C36.4670417,14.1932399 38.6688272,21.7792819 44.1732911,32.3018563 C46.9866837,37.5631435 43.561684,42.3350087 41.1152556,52.12345 C38.1795415,63.8695796 52.6134689,87.3618387 83.5607879,71.4556216 C95.5482869,65.2154902 102.887572,51.2669614 102.275965,46.6174518 Z" id="Path" fill="#A81B22" fill-rule="nonzero"></path>
                                    <path d="M59.5857898,49.0645621 C59.5857898,49.0645621 54.8152545,49.5539841 50.0447191,54.3258493 C46.8643623,57.5070927 30.9625778,89.0748159 30.9625778,89.0748159 L16.406329,44.4150525 L5.76436559,45.2715411 C5.76436559,45.2715411 17.7518646,117.216585 27.1706139,117.339181 C35.977756,117.461296 64.1116823,70.9661995 64.1116823,70.9661995 L59.5857898,49.0645621 Z" id="Path" fill="#FFB67B" fill-rule="nonzero"></path>
                                    <path d="M89.6768588,67.9073116 L98.9732866,102.900989 L43.6840054,107.428143 L43.9286482,117.461296 C43.9286482,117.461296 107.658107,117.706007 119.767928,117.583651 C127.71882,117.461296 112.673286,54.0811383 103.132215,46.8621628 C95.5482869,41.1114535 74.5090029,42.7020752 74.5090029,42.7020752 L59.5857898,49.0645621 C59.5857898,49.0645621 42.2161484,66.3166899 52.6134689,82.4676181 C60.809004,95.1925918 50.4116834,120.030762 50.4116834,120.030762 L85.7625734,122.110805 L117.321499,122.355516 L89.6768588,67.9073116 Z" id="Path" fill="#FFB67B" fill-rule="nonzero"></path>
                                    <path d="M54.4482902,106.571655 L56.4054329,106.204588 C58.3625756,97.8844131 58.6072185,86.6277056 54.3259688,81.1217074 C45.7634695,70.3544219 54.5706116,54.6929158 59.5857898,49.0645621 L59.5857898,49.0645621 C58.8518613,49.9210507 42.4607912,66.5614009 52.6134689,82.4676181 C57.3840043,89.9313046 56.1607901,99.8421014 54.4482902,106.571655 Z" id="Path" fill="#F39B53" fill-rule="nonzero"></path>
                                    <path d="M43.9286482,109.752898 C38.0572201,109.997609 31.8188278,112.077653 28.8831137,115.503607 C28.2715066,116.237741 28.7607923,117.461296 29.7393636,117.461296 L43.9286482,117.461296 L43.9286482,109.752898 Z" id="Path" fill="#FFB19E" fill-rule="nonzero"></path>
                                    <g transform="translate(47.842934, 15.188722)">
                                        <path d="M26.6660693,15.767224 L26.6660693,27.6357091 L16.0241058,39.7489053 L15.9017844,39.6265497 L12.9660704,33.5087739 L12.9660704,26.901576 C7.70624938,26.1674429 3.05803547,22.1297109 1.83482128,16.3790016 L0.366964256,8.18118202 C0.366964256,8.18118202 8.31785647,7.32469341 14.5562488,0.962206554 C14.5562488,0.962206554 16.3910701,4.38816101 19.2044627,7.07998237 C21.1616054,9.03767064 23.8526766,9.5270927 24.9535694,10.6282923 C26.299105,11.8518475 26.7883907,13.8095358 26.6660693,15.767224 Z" id="Path" fill="#EDA6A4" fill-rule="nonzero"></path>
                                        <path d="M23.1187481,21.7626443 C22.6294625,22.3744219 20.1830341,25.4333098 18.10357,27.1462871 C17.24732,27.8804202 16.8803558,28.8592643 16.8803558,29.8381084 L15.9017844,39.5041942 L12.9660704,33.3864184 L12.9660704,26.7792205 L13.0883918,26.656865 C13.2107132,26.656865 19.9383912,25.6780209 23.1187481,21.7626443 Z" id="Path" fill="#E2928F" fill-rule="nonzero"></path>
                                        <path d="M9.2278878,19.2706472 L17.1084375,17.9389059 C16.9592644,19.6649295 15.9887098,20.7527821 14.1967738,21.2024637 C12.4048378,21.6521453 10.7485424,21.0082065 9.2278878,19.2706472 Z" id="Path-5" fill="#FFFFFF"></path>
                                    </g>
                                    <path d="M15.5500791,44.6597635 C15.5500791,44.6597635 17.0179361,32.3018563 15.6724005,31.8124343 C14.3268649,31.3230122 12.9813293,36.5842994 12.9813293,36.5842994 C12.9813293,36.5842994 7.23222261,25.4499474 3.31793721,26.6735026 C-0.596348184,27.8970577 6.62061552,45.02683 6.62061552,45.02683 L15.5500791,44.6597635 Z" id="Path" fill="#EDA6A4" fill-rule="nonzero"></path>
                                    <path d="M54.4482902,106.449299 L97.9947153,102.778634 C99.4625723,102.656278 100.563465,101.310368 100.196501,99.8421014 C98.6063224,91.6442818 93.9581085,68.3967337 93.7134656,69.0085113 C93.3465014,69.8649999 98.1170367,96.5385024 92.4902514,99.2303238 C88.6982874,101.065657 54.4482902,106.449299 54.4482902,106.449299 Z" id="Path" fill="#F39B53" fill-rule="nonzero"></path>
                                    <g transform="translate(0.000000, 119.908406)" fill-rule="nonzero" id="Path">
                                        <g transform="translate(60.075075, 106.449299)">
                                            <path d="M23.9749981,9.05430821 C23.6080338,9.17666373 23.363391,9.29901925 23.1187481,9.6660858 C20.3053555,13.5814623 17.8589271,14.4379509 12.9660704,15.0497285 C12.7214275,15.0497285 12.3544633,15.172084 12.1098204,15.2944396 C12.4767847,14.682662 14.0669631,12.1131961 12.9660704,9.6660858 C11.7428562,6.97426444 10.1526778,5.01657617 10.1526778,5.01657617 L17.24732,0.734133098 C17.3696415,0.856488615 21.6508911,5.87306479 23.9749981,9.05430821 Z" fill="#FFB19E"></path>
                                            <path d="M29.2348191,18.1086164 C28.0116049,19.3321716 7.70624938,30.3441681 2.93571405,33.1583449 C2.32410695,33.5254115 1.10089277,34.1371891 0.978571349,33.5254115 C0.611607093,32.5465674 9.41874924,15.5391506 13.0883918,15.0497285 C17.9812485,14.4379509 20.4276769,13.4591068 23.1187481,9.6660858 C23.7303552,8.80959718 24.9535694,8.80959718 25.4428551,9.6660858 C27.3999978,12.6026182 30.2133904,17.1297723 29.2348191,18.1086164 Z" fill="#13448C"></path>
                                        </g>
                                        <path d="M50.5340048,0 C50.5340048,0 1.36079451,22.7581261 0.0152589091,38.6643432 C-1.08563386,52.7352276 71.328646,117.094229 71.328646,117.094229 L82.8268594,112.322364 L43.1947197,48.330429 C43.1947197,48.330429 85.2732877,27.6523467 95.5482869,2.69182136 L50.5340048,0 Z" fill="#30508B"></path>
                                        <path d="M19.2197216,34.5042556 C15.9170433,40.989098 13.470615,49.9210507 11.7581151,57.9965148 C17.3849004,64.6037127 24.3572212,72.0673992 31.5741849,79.4087301 C26.1920425,58.2412258 21.4215072,36.951366 23.134007,33.892478 C26.3143639,28.1417688 47.1090051,12.6026182 61.9098968,5.01657617 C61.7875753,4.89422066 26.925971,19.5768826 19.2197216,34.5042556 Z" fill="#22427D"></path>
                                    </g>
                                    <g transform="translate(22.155436, 120.993315)" fill-rule="nonzero" id="Path">
                                        <g transform="translate(0.000000, 116.376387)">
                                            <path d="M32.9044616,11.2567075 C32.5374974,11.134352 32.2928545,11.134352 31.9258903,11.379063 C27.6446406,13.3367513 25.0758908,12.9696847 20.4276769,11.134352 C20.1830341,11.0119965 19.8160698,11.0119965 19.4491056,11.0119965 C20.0607127,10.6449299 22.7517839,9.17666373 22.9964267,6.60719789 C23.2410695,3.67066549 22.8741053,1.22355516 22.8741053,1.22355516 L31.1919618,0.978844131 C31.0696403,0.856488615 32.4151759,7.34133098 32.9044616,11.2567075 Z" fill="#FFB19E"></path>
                                            <path d="M33.026783,22.268704 C31.3142832,22.7581261 7.46160654,22.3910595 1.83482128,22.513415 C1.10089277,22.513415 0.611607093,21.9016374 0.733928512,21.2898599 C0.978571349,20.1886602 16.8803558,9.78844131 20.3053555,11.134352 C24.831248,12.9696847 27.3999978,13.3367513 31.8035689,11.379063 C32.6598188,11.0119965 33.7607116,11.5014185 33.883033,12.6026182 C34.1276758,16.0285726 34.3723186,21.9016374 33.026783,22.268704 Z" fill="#13448C"></path>
                                        </g>
                                        <g>
                                            <path d="M94.9214209,1.23984613 C94.9214209,1.23984613 99.0803491,29.1369039 74.1267797,36.1111683 C54.4330313,41.6171665 33.2714259,44.5536989 33.2714259,44.5536989 L34.7392829,123.717718 L21.6508911,123.717718 C21.6508911,123.717718 -2.44642837,39.1700562 0.978571349,32.8075694 C4.89285675,25.7109494 35.4732114,3.93166749 48.6839246,0.0162909611 L94.9214209,1.23984613 Z" fill="#4065A9"></path>
                                            <path d="M33.2714259,44.5536989 C33.2714259,44.5536989 54.4330313,41.7395221 74.1267797,36.1111683 C99.0803491,29.0145483 94.9214209,1.23984613 94.9214209,1.23984613 L79.5089221,0.872779576 C74.8607082,10.9059319 59.8151737,35.6217462 23.1187481,38.3135676 L31.4366046,123.717718 L34.8616043,123.717718 L33.2714259,44.5536989 Z" fill="#0E367C" opacity="0.13"></path>
                                        </g>
                                    </g>
                                </g>
                                <g transform="translate(0.000000, 117.322649)" fill-rule="nonzero" id="Path">
                                    <g transform="translate(7.339285, 3.809312)" fill="#FFFFFF">
                                        <polygon points="6.48303519 138.995867 0.978571349 138.995867 23.8526766 1.59062171 29.3571405 1.4682662"></polygon>
                                        <polygon points="233.022303 138.995867 238.771409 138.995867 210.515162 0 204.643733 0"></polygon>
                                    </g>
                                    <g transform="translate(29.357140, 3.809312)" fill="#E4EDF7">
                                        <polygon points="5.8714281 9.05430821 7.33928512 1.4682662 1.83482128 1.59062171 0.366964256 9.05430821"></polygon>
                                        <polygon points="190.332127 9.05430821 188.497306 0 182.625878 0 184.460699 9.05430821"></polygon>
                                    </g>
                                    <path d="M251.125873,0.0162909611 L3.3026783,0.0162909611 C1.71249986,0.0162909611 0.489285675,1.23984613 0.489285675,2.83046784 L0.489285675,2.83046784 C0.489285675,4.42108955 1.71249986,5.64464472 3.3026783,5.64464472 L251.248194,5.64464472 C252.838372,5.64464472 254.061587,4.42108955 254.061587,2.83046784 L254.061587,2.83046784 C253.939265,1.23984613 252.716051,0.0162909611 251.125873,0.0162909611 Z" fill="#FFFFFF"></path>
                                </g>
                            </g>
                            <g transform="translate(126.068607, 17.232302)" fill-rule="nonzero" id="Path">
                                <g transform="translate(69.723209, 57.507093)">
                                    <path d="M74.8607082,40.8830334 L68.377673,3.07517887 C68.1330302,1.36220164 66.6651732,0.0162909611 64.8303519,0.0162909611 L4.03660682,0.628068543 C1.83482128,0.628068543 0.244642837,2.58575681 0.489285675,4.66580058 L6.23839235,37.8241455 L9.1741064,56.6668951 C9.29642782,57.6457392 10.6419634,57.8904502 11.1312491,57.1563171 L18.8374985,45.5325431 L71.3133871,44.9207655 C73.5151726,45.043121 75.2276725,43.0854327 74.8607082,40.8830334 Z" fill="#838B8F"></path>
                                    <g transform="translate(16.987418, 11.150643)" fill="#FFFFFF">
                                        <path d="M36.3447203,0.611777582 L1.11615168,0.611777582 C0.504544584,0.611777582 0.0152589091,1.10119965 0.137580328,1.71297723 L0.259901746,2.69182136 C0.382223165,3.18124343 0.749187421,3.54830998 1.2384731,3.54830998 L36.4670417,3.54830998 C37.0786488,3.54830998 37.5679344,3.05888791 37.445613,2.44711033 L37.3232916,1.4682662 C37.2009702,0.978844131 36.8340059,0.611777582 36.3447203,0.611777582 Z"></path>
                                        <path d="M37.445613,10.0331523 L2.21704445,10.0331523 C1.60543735,10.0331523 1.11615168,10.5225744 1.2384731,11.134352 L1.36079451,12.1131961 C1.48311593,12.6026182 1.85008019,12.9696847 2.33936586,12.9696847 L37.5679344,12.9696847 C38.1795415,12.9696847 38.6688272,12.4802627 38.5465058,11.8684851 L38.4241844,10.889641 C38.4241844,10.2778634 37.9348987,10.0331523 37.445613,10.0331523 Z"></path>
                                        <path d="M29.1277566,20.0663047 L12.8590079,20.0663047 C12.2474008,20.0663047 11.7581151,20.5557268 11.8804365,21.1675043 L12.0027579,22.1463485 C12.1250794,22.6357705 12.4920436,23.0028371 12.9813293,23.0028371 L29.250078,23.0028371 C29.8616851,23.0028371 30.3509707,22.513415 30.2286493,21.9016374 L30.1063279,20.9227933 C29.9840065,20.4333712 29.6170422,20.0663047 29.1277566,20.0663047 Z"></path>
                                    </g>
                                </g>
                                <g transform="translate(322.928545, 0.000000)">
                                    <path d="M68.6223159,38.4359231 L76.6955295,2.83046784 C77.0624938,1.23984613 76.2062438,0.0162909611 74.493744,0.0162909611 L17.1249986,0.628068543 C15.0455345,0.628068543 12.843749,2.46340129 12.2321419,4.42108955 L5.13749958,35.6217462 L0.733928512,53.3632961 C0.489285675,54.3421402 1.59017844,54.5868513 2.44642837,53.7303627 L14.0669631,42.7183662 L63.6071377,42.2289441 C65.8089232,42.3512996 68.1330302,40.5159669 68.6223159,38.4359231 Z" fill="#A2ACB1"></path>
                                    <g transform="translate(22.017855, 11.150643)" fill="#FFFFFF">
                                        <path d="M36.3294613,0.367066549 L4.77053533,0.367066549 C4.28124965,0.367066549 3.66964256,0.856488615 3.54732114,1.34591068 L3.3026783,2.32475481 C3.18035689,2.69182136 3.42499972,3.05888791 3.9142854,3.05888791 L35.4732114,3.05888791 C35.9624971,3.05888791 36.5741042,2.56946584 36.6964256,2.08004378 L36.9410684,1.10119965 C37.0633899,0.734133098 36.818747,0.367066549 36.3294613,0.367066549 Z"></path>
                                        <path d="M34.0053544,8.80959718 L2.44642837,8.80959718 C1.9571427,8.80959718 1.34553561,9.29901925 1.22321419,9.78844131 L0.978571349,10.7672854 C0.856249931,11.134352 1.10089277,11.5014185 1.59017844,11.5014185 L33.1491045,11.5014185 C33.6383901,11.5014185 34.2499972,11.0119965 34.3723186,10.5225744 L34.6169615,9.54373028 C34.7392829,9.05430821 34.4946401,8.80959718 34.0053544,8.80959718 Z"></path>
                                        <path d="M22.8741053,17.8639054 L8.31785647,17.8639054 C7.8285708,17.8639054 7.2169637,18.3533275 7.09464228,18.8427495 L6.84999945,19.8215937 C6.72767803,20.1886602 6.97232086,20.5557268 7.46160654,20.5557268 L22.0178554,20.5557268 C22.507141,20.5557268 23.1187481,20.0663047 23.2410695,19.5768826 L23.4857124,18.5980385 C23.6080338,18.2309719 23.363391,17.8639054 22.8741053,17.8639054 Z"></path>
                                    </g>
                                </g>
                                <g transform="translate(0.000000, 49.080853)">
                                    <path d="M64.4633876,49.0645621 C65.1973162,49.6763397 66.4205303,49.0645621 66.2982089,48.0857179 L58.4696381,3.18124343 C58.2249953,1.71297723 57.0017811,0.611777582 55.5339241,0.611777582 L3.9142854,1.22355516 C2.07946412,1.22355516 0.611607093,2.81417688 0.978571349,4.64950962 L6.48303519,36.7066549 C6.72767803,38.1749211 7.95089221,39.2761208 9.41874924,39.2761208 L49.1732103,38.7866987 C51.0080316,38.7866987 52.8428529,39.3984763 54.3107099,40.6220314 L64.4633876,49.0645621 Z" fill="#A2ACB1"></path>
                                    <g transform="translate(12.094562, 13.459107)" fill="#FFFFFF">
                                        <path d="M36.3447203,0.489422066 L1.11615168,0.489422066 C0.504544584,0.489422066 0.0152589091,0.978844131 0.137580328,1.59062171 L0.259901746,2.56946584 C0.382223165,3.05888791 0.749187421,3.42595446 1.2384731,3.42595446 L36.4670417,3.42595446 C37.0786488,3.42595446 37.5679344,2.93653239 37.445613,2.32475481 L37.3232916,1.34591068 C37.2009702,0.856488615 36.8340059,0.489422066 36.3447203,0.489422066 Z"></path>
                                        <path d="M37.445613,9.91079683 L2.21704445,9.91079683 C1.60543735,9.91079683 1.11615168,10.4002189 1.2384731,11.0119965 L1.36079451,11.9908406 C1.48311593,12.4802627 1.85008019,12.8473292 2.33936586,12.8473292 L37.5679344,12.8473292 C38.1795415,12.8473292 38.6688272,12.3579072 38.5465058,11.7461296 L38.4241844,10.7672854 C38.4241844,10.2778634 37.9348987,9.91079683 37.445613,9.91079683 Z"></path>
                                    </g>
                                </g>
                            </g>
                            <g transform="translate(354.809659, 29.606500)">
                                <g id="Path">
                                    <g transform="translate(0.000000, 53.836427)" fill-rule="nonzero">
                                        <path d="M107.642848,107.061077 L107.398206,114.157697 L103.116956,278.3588 L86.1142787,278.3588 L71.0687443,137.649956 C71.0687443,137.649956 71.0687443,137.649956 71.0687443,137.649956 L51.9866029,185.123896 L65.0749947,278.3588 L58.8366024,278.3588 L48.4392818,278.481155 C48.4392818,278.481155 17.3696415,185.368607 17.9812485,179.373187 C18.5928556,173.377767 41.9562466,107.550499 41.9562466,107.550499 L107.642848,107.061077 Z" fill="#4B4B4C"></path>
                                        <polygon fill="#14D188" points="109.233027 5.38364272 77.429458 0.978844131 76.6955295 0.856488615 61.4053522 0.856488615 61.2830308 0.978844131 43.0571394 5.50599824 43.0571394 107.917565 109.233027 107.917565"></polygon>
                                        <path d="M163.78838,25.2052364 C163.78838,25.2052364 166.112487,10.7672854 167.824986,10.6449299 C169.537486,10.5225744 169.292843,17.0074168 169.292843,17.0074168 C169.292843,17.0074168 179.445521,6.24013134 183.482128,8.9319527 C187.518735,11.6237741 173.818736,28.6311908 173.818736,28.6311908 L163.78838,25.2052364 Z" fill="#EDA6A4"></path>
                                        <path d="M61.4053522,0.978844131 L63.117852,114.035341 L39.2651754,114.035341 L37.5526755,83.0793956 L5.8714281,82.5899736 C2.56874979,82.7123291 0.122321419,79.5310857 1.10089277,76.3498422 L16.8803558,21.5345709 C18.7151771,15.172084 23.8526766,10.1555079 30.3357118,8.56488615 L61.2830308,0.856488615 L61.4053522,0.978844131 Z" fill="#799CDE"></path>
                                        <path d="M174.797307,29.1206129 L144.094631,92.1337039 C142.137489,95.6820138 137.12231,95.8043693 135.042846,92.2560594 L111.067848,52.4905165 L109.844634,114.035341 L84.4017789,114.035341 L77.3071366,0.978844131 L77.429458,0.978844131 L109.844634,5.38364272 C115.960705,6.36248685 121.220526,10.1555079 123.911597,15.7838616 L140.302667,49.5539841 C140.669631,50.4104728 141.892846,50.5328283 142.382131,49.7986952 L163.176773,24.8381698 L174.797307,29.1206129 Z" fill="#799CDE"></path>
                                        <polygon fill="#799CDE" points="37.4303541 83.4464622 68.6223159 83.4464622 68.8669587 67.5402451 37.7973184 67.050823"></polygon>
                                        <path d="M68.7446373,79.0416636 C77.5517794,78.674597 86.8482073,75.6157091 91.2517783,70.4767774 C92.2303497,69.3755778 91.3740998,67.5402451 89.9062427,67.5402451 L68.6223159,67.5402451 L68.7446373,79.0416636 Z" fill="#EDA6A4"></path>
                                        <polygon fill="#13448C" opacity="0.41" points="56.6348168 84.0582398 56.6348168 83.5688177 37.674997 83.4464622 39.2651754 114.035341 45.0142821 88.7077494"></polygon>
                                        <path d="M68.8669587,67.4178895 C68.8669587,67.4178895 26.6660693,70.4767774 27.0330335,69.6202888 L34.3723186,44.4150525 L34.4946401,44.782119 L35.2285686,62.4013134 C35.2285686,64.8484237 66.6651732,66.806112 68.8669587,67.4178895 Z" fill="#13448C" opacity="0.41"></path>
                                        <path d="M50.3964245,278.3588 C46.7267819,285.822486 29.3571405,289.615507 29.3571405,289.615507 C29.3571405,289.615507 28.1339263,291.817907 30.091069,294.632084 C32.0482117,297.44626 50.3964245,295.733283 52.7205314,295.243861 C55.0446384,294.754439 56.6348168,292.919106 56.6348168,292.919106 C56.6348168,292.919106 58.2249953,294.632084 59.0812452,294.99915 C59.9374952,295.366217 64.5857091,294.509728 64.5857091,294.509728 C65.6866018,291.573196 64.5857091,280.194133 64.2187448,278.3588 L50.3964245,278.3588 Z" fill="#13448C"></path>
                                        <path d="M101.649099,278.3588 C105.318741,285.822486 122.688383,289.615507 122.688383,289.615507 C122.688383,289.615507 123.911597,291.817907 121.954454,294.632084 C119.997312,297.44626 101.649099,295.733283 99.324992,295.243861 C97.000885,294.754439 95.4107066,292.919106 95.4107066,292.919106 C95.4107066,292.919106 93.8205281,294.632084 92.9642782,294.99915 C92.1080283,295.366217 87.4598144,294.509728 87.4598144,294.509728 C86.3589216,291.573196 87.4598144,280.194133 87.8267786,278.3588 L101.649099,278.3588 Z" fill="#13448C"></path>
                                    </g>
                                    <g transform="translate(48.928567, 0.000000)">
                                        <g transform="translate(1.223214, 0.000000)">
                                            <path d="M27.1553549,54.9376269 C24.831248,56.7729596 19.2044627,60.6883361 19.2044627,60.6883361 C19.2044627,60.6883361 13.5776775,56.7729596 11.1312491,54.9376269 L11.1312491,41.4785201 L27.0330335,41.4785201 L27.0330335,54.9376269 L27.1553549,54.9376269 Z" fill="#EDA6A4"></path>
                                            <path d="M1.46785702,32.6689229 L37.3080327,32.6689229 L37.9196398,22.6357705 C45.870532,19.3321716 39.8767825,0.367066549 39.8767825,0.367066549 C40.3660682,4.89422066 28.0116049,5.13893169 23.1187481,4.28244307 C18.2258914,3.54830998 14.9232131,5.50599824 14.9232131,5.50599824 C14.9232131,5.50599824 -0.611607093,2.2023993 0.244642837,23.9816812 C0.366964256,27.4076357 0.856249931,30.099457 1.46785702,32.6689229 Z" fill="#303030"></path>
                                            <g transform="translate(0.000000, 14.682662)">
                                                <path d="M33.5160687,7.95310857 L33.5160687,16.8850613 C33.5160687,20.6780823 31.9258903,24.3487478 29.1124976,27.0405691 C28.623212,27.4076357 28.2562477,27.8970577 27.766962,28.2641243 C22.9964267,32.7912784 15.4124988,32.7912784 10.519642,28.2641243 L9.1741064,27.0405691 C6.36071377,24.4711033 4.77053533,20.8004378 4.77053533,16.8850613 L4.77053533,10.0331523 C4.77053533,10.0331523 8.92946356,7.21897547 14.6785702,0.489422066 C14.6785702,0.611777582 21.039284,6.60719789 33.5160687,7.95310857 Z" fill="#EDA6A4"></path>
                                                <path d="M27.1553549,28.9982574 L27.1553549,32.4242118 C22.507141,36.2172329 15.9017844,36.2172329 11.2535705,32.5465674 L11.2535705,29.1206129 C15.9017844,32.7912784 22.507141,32.7912784 27.1553549,28.9982574 Z" fill="#E2928F"></path>
                                                <path d="M8.31785647,19.0874606 C11.1312491,14.682662 6.36071377,9.91079683 1.9571427,12.7249737 C1.59017844,12.9696847 1.34553561,13.2143958 1.10089277,13.5814623 C-1.71249986,17.9862609 3.05803547,22.7581261 7.46160654,19.9439492 C7.8285708,19.6992381 8.19553505,19.4545271 8.31785647,19.0874606 Z" fill="#FFB19E"></path>
                                                <path d="M36.9410684,19.0874606 C39.6321397,14.682662 35.2285686,10.1555079 30.9473189,12.4802627 C30.3357118,12.8473292 29.8464262,13.3367513 29.6017833,13.8261734 C27.2776764,18.2309719 31.8035689,22.6357705 36.2071399,19.8215937 C36.4517828,19.6992381 36.818747,19.4545271 36.9410684,19.0874606 Z" fill="#FFB19E"></path>
                                            </g>
                                        </g>
                                        <g transform="translate(0.000000, 3.670665)" fill-rule="nonzero">
                                            <path d="M38.0419612,20.5557268 L36.6964256,20.5557268 L36.6964256,15.9062171 C36.6964256,8.07546408 29.6017833,1.71297723 20.7946412,1.71297723 L20.1830341,1.71297723 C11.3758919,1.71297723 4.28124965,8.07546408 4.28124965,15.9062171 L4.28124965,20.6780823 L2.93571405,20.6780823 L2.93571405,15.9062171 C2.93571405,7.34133098 10.6419634,0.367066549 20.1830341,0.367066549 L20.7946412,0.367066549 C30.3357118,0.367066549 38.0419612,7.34133098 38.0419612,15.9062171 L38.0419612,20.5557268 Z" fill="#A31919"></path>
                                            <g transform="translate(0.000000, 17.129772)">
                                                <g>
                                                    <g transform="translate(33.026783, 0.000000)">
                                                        <path d="M3.9142854,0.978844131 L3.9142854,0.978844131 C1.83482128,0.978844131 0.122321419,2.69182136 0.122321419,4.77186514 L0.122321419,11.6237741 C0.122321419,13.7038178 1.83482128,15.4167951 3.9142854,15.4167951 L3.9142854,15.4167951 C5.99374952,15.4167951 7.70624938,13.7038178 7.70624938,11.6237741 L7.70624938,4.77186514 C7.70624938,2.69182136 5.99374952,0.978844131 3.9142854,0.978844131 Z" fill="#F95858"></path>
                                                        <path d="M3.9142854,0.978844131 C3.54732114,0.978844131 3.18035689,1.10119965 2.81339263,1.22355516 C4.40357107,1.71297723 5.50446384,3.18124343 5.50446384,4.89422066 L5.50446384,11.7461296 C5.50446384,13.4591068 4.40357107,14.927373 2.81339263,15.4167951 C3.18035689,15.5391506 3.54732114,15.6615061 3.9142854,15.6615061 C5.99374952,15.6615061 7.70624938,13.9485289 7.70624938,11.8684851 L7.70624938,5.01657617 C7.70624938,2.69182136 5.99374952,0.978844131 3.9142854,0.978844131 Z" fill="#CC3241"></path>
                                                    </g>
                                                    <g>
                                                        <path d="M3.9142854,0.978844131 L3.9142854,0.978844131 C1.83482128,0.978844131 0.122321419,2.69182136 0.122321419,4.77186514 L0.122321419,11.6237741 C0.122321419,13.7038178 1.83482128,15.4167951 3.9142854,15.4167951 L3.9142854,15.4167951 C5.99374952,15.4167951 7.70624938,13.7038178 7.70624938,11.6237741 L7.70624938,4.77186514 C7.8285708,2.69182136 6.11607093,0.978844131 3.9142854,0.978844131 Z" fill="#F95858"></path>
                                                        <path d="M3.9142854,0.978844131 C3.54732114,0.978844131 3.18035689,1.10119965 2.81339263,1.22355516 C4.40357107,1.71297723 5.50446384,3.18124343 5.50446384,4.89422066 L5.50446384,11.7461296 C5.50446384,13.4591068 4.40357107,14.927373 2.81339263,15.4167951 C3.18035689,15.5391506 3.54732114,15.6615061 3.9142854,15.6615061 C5.99374952,15.6615061 7.70624938,13.9485289 7.70624938,11.8684851 L7.70624938,5.01657617 C7.8285708,2.69182136 6.11607093,0.978844131 3.9142854,0.978844131 Z" fill="#CC3241"></path>
                                                    </g>
                                                </g>
                                                <g transform="translate(22.017855, 12.235552)" fill="#FF4751">
                                                    <path d="M4.52589249,7.4636865 L4.52589249,6.7295534 C8.92946356,6.48484237 12.7214275,0.978844131 12.7214275,0.978844131 L13.3330346,1.4682662 C13.2107132,1.59062171 9.29642782,7.21897547 4.52589249,7.4636865 Z"></path>
                                                    <path d="M5.38214242,7.21897547 C5.38214242,6.48484237 4.28124965,5.9954203 3.05803547,6.11777582 C1.83482128,6.24013134 0.856249931,6.85190892 0.856249931,7.58604202 C0.856249931,8.32017512 1.9571427,8.80959718 3.18035689,8.68724166 C4.40357107,8.56488615 5.38214242,7.95310857 5.38214242,7.21897547 Z"></path>
                                                </g>
                                            </g>
                                        </g>
                                    </g>
                                </g>
                                <g transform="translate(33.026783, 74.636865)" fill-rule="nonzero">
                                    <path d="M61.5276736,0 L5.8714281,0 C2.81339263,0 0.489285675,2.56946584 0.611607093,5.75070927 L2.07946412,41.6008756 C2.20178554,44.537408 4.64821391,46.8621628 7.46160654,46.8621628 L59.9374952,46.8621628 C62.7508878,46.8621628 65.1973162,44.537408 65.3196376,41.6008756 L66.7874946,5.75070927 C66.909816,2.56946584 64.5857091,0 61.5276736,0 Z" id="Path" fill="#515151"></path>
                                    <path d="M61.5276736,0 L5.8714281,0 C4.40357107,0 2.93571405,0.611777582 2.07946412,1.71297723 C2.56874979,1.59062171 3.05803547,1.4682662 3.54732114,1.4682662 L59.2035666,1.4682662 C62.2616021,1.4682662 64.5857091,4.03773204 64.4633876,7.21897547 L62.9955306,43.0691418 C62.9955306,44.4150525 62.3839235,45.6386076 61.5276736,46.4950962 C63.7294591,45.8833187 65.3196376,43.9256304 65.441959,41.4785201 L66.909816,5.62835375 C66.909816,2.56946584 64.5857091,0 61.5276736,0 Z" id="Path" fill="#7D7E7F"></path>
                                    <ellipse id="Oval" fill="#67696E" cx="33.2714259" cy="24.3487478" rx="6.36071377" ry="6.36248685"></ellipse>
                                </g>
                            </g>
                        </g>
                    </g>
                </g>
            </g>
        </g>
    </g>
</svg>